<?xml version="1.0" encoding="UTF-8" standalone="no"?>
<svg
   width="260"
   height="260"
   viewBox="0 0 259.99999 260.00001"
   version="1.1"
   id="svg5"
   sodipodi:docname="icon.svg"
   inkscape:version="1.4 (86a8ad7, 2024-10-11)"
   xmlns:inkscape="http://www.inkscape.org/namespaces/inkscape"
   xmlns:sodipodi="http://sodipodi.sourceforge.net/DTD/sodipodi-0.dtd"
   xmlns="http://www.w3.org/2000/svg"
   xmlns:svg="http://www.w3.org/2000/svg">
  <defs
     id="defs9" />
  <sodipodi:namedview
     id="namedview7"
     pagecolor="#ffffff"
     bordercolor="#666666"
     borderopacity="1.0"
     inkscape:pageshadow="2"
     inkscape:pageopacity="0.0"
     inkscape:pagecheckerboard="0"
     showgrid="false"
     inkscape:zoom="4"
     inkscape:cx="79.25"
     inkscape:cy="93.625"
     inkscape:window-width="3840"
     inkscape:window-height="2089"
     inkscape:window-x="-8"
     inkscape:window-y="1362"
     inkscape:window-maximized="1"
     inkscape:current-layer="svg5"
     inkscape:showpageshadow="2"
     inkscape:deskcolor="#d1d1d1" />
  <g
     id="svgGroup"
     stroke-linecap="round"
     fill-rule="evenodd"
     font-size="12px"
     stroke="#000"
     stroke-width="0.25mm"
     fill="black"
     style="fill:#d40000;fill-opacity:1;fill-rule:evenodd;stroke:#d20419;stroke-width:0.26059mm;stroke-opacity:1"
     transform="matrix(4.3722331,0,0,2.7949623,12.151155,11.377312)">
    <path
       d="m 16.895,75.782 0.684,-0.586 q 2.49,2.099 5.688,3.393 a 17.379,17.379 0 0 0 5.012,1.232 16.067,16.067 0 0 0 1.409,0.062 10.647,10.647 0 0 0 4.468,-1.758 q 1.977,-1.367 3.345,-3.344 1.367,-1.978 2.075,-4.346 0.708,-2.368 0.708,-4.761 A 18.364,18.364 0 0 0 39.877,61.715 13.621,13.621 0 0 0 38.16,57.422 18.421,18.421 0 0 0 32.667,51.758 q -4.2,1.66 -8.594,2.49 -4.395,0.83 -8.692,0.928 a 285.659,285.659 0 0 0 -0.023,3.616 271.124,271.124 0 0 0 0.243,11.545 507.086,507.086 0 0 0 0.36,7.257 432.939,432.939 0 0 0 0.446,6.879 l -0.928,0.293 A 55.075,55.075 0 0 1 13.84,79.685 63.015,63.015 0 0 1 13.379,77.881 90.35,90.35 0 0 1 11.915,70.362 Q 11.329,66.504 10.962,62.574 A 142.453,142.453 0 0 1 10.45,54.834 18.452,18.452 0 0 1 8.082,54.273 10.672,10.672 0 0 1 6.682,53.739 8.879,8.879 0 0 1 5.933,53.345 5.648,5.648 0 0 1 4.978,52.644 4.695,4.695 0 0 1 4.395,52.002 2.906,2.906 0 0 1 3.848,50.654 3.85,3.85 0 0 1 3.809,50.098 3.74,3.74 0 0 1 3.917,49.181 2.882,2.882 0 0 1 4.371,48.194 4.718,4.718 0 0 1 5.367,47.184 5.783,5.783 0 0 1 5.86,46.851 7.719,7.719 0 0 1 7.251,46.194 9.23,9.23 0 0 1 7.959,45.972 q 1.172,-0.317 2.344,-0.464 0,-2.051 0.049,-5.029 a 120.651,120.651 0 0 1 0.128,-3.866 143.869,143.869 0 0 1 0.141,-2.457 99.822,99.822 0 0 1 0.683,-6.788 46.386,46.386 0 0 1 0.881,-4.734 40.16,40.16 0 0 1 0.462,-1.735 q 0.879,-3.028 2.197,-5.371 1.319,-2.344 3.272,-3.467 a 11.776,11.776 0 0 1 1.076,-0.57 13.88,13.88 0 0 1 0.535,-0.236 4.776,4.776 0 0 1 1.856,-0.366 2.442,2.442 0 0 1 0.571,0.061 q 0.942,0.227 0.942,1.306 0,0.488 -0.122,0.855 a 21.094,21.094 0 0 1 -0.197,0.563 23.68,23.68 0 0 1 -0.071,0.194 91.31,91.31 0 0 1 -1.734,3.833 q -0.903,1.879 -1.489,3.979 -1.514,5.518 -2.417,11.45 a 138.168,138.168 0 0 0 -1.294,12.183 45.385,45.385 0 0 1 5.623,0.503 53.985,53.985 0 0 1 2.678,0.473 q 4.345,0.879 8.447,2.588 3.076,-1.855 5.64,-4.297 2.563,-2.441 4.394,-5.42 A 26.232,26.232 0 0 0 45.386,32.764 23.052,23.052 0 0 0 46.298,26.252 25.638,25.638 0 0 0 46.29,25.586 28.011,28.011 0 0 0 45.749,19.97 22.377,22.377 0 0 0 44.361,15.528 24.014,24.014 0 0 0 41.153,10.119 21.355,21.355 0 0 0 39.234,8.008 Q 36.036,4.932 31.934,3.296 A 22.609,22.609 0 0 0 23.487,1.66 18.13,18.13 0 0 0 19.309,2.167 22.425,22.425 0 0 0 17.188,2.784 q -3.271,1.123 -5.957,3.125 a 17.141,17.141 0 0 0 -4.419,4.834 11.741,11.741 0 0 0 -1.733,6.25 9.485,9.485 0 0 0 0.089,1.331 7.415,7.415 0 0 0 0.228,1.061 q 0.317,1.074 0.684,1.953 a 868.898,868.898 0 0 0 0.354,0.849 694.992,694.992 0 0 0 0.329,0.787 4.127,4.127 0 0 1 0.265,0.89 3.495,3.495 0 0 1 0.053,0.599 3.462,3.462 0 0 1 -0.231,1.282 3.176,3.176 0 0 1 -0.722,1.086 3.151,3.151 0 0 1 -2.276,0.952 3.9,3.9 0 0 1 -0.043,10e-4 q -1.102,0 -1.8,-0.516 A 2.297,2.297 0 0 1 1.807,27.1 4.569,4.569 0 0 1 0.841,25.793 5.498,5.498 0 0 1 0.66,25.391 8.023,8.023 0 0 1 0.123,23.218 24.316,24.316 0 0 1 0.039,22.265 Q 0.01,21.831 0.003,21.444 A 13.49,13.49 0 0 1 0.001,21.192 15.685,15.685 0 0 1 1.002,15.548 14.746,14.746 0 0 1 2.027,13.404 23.328,23.328 0 0 1 7.121,7.35 26.225,26.225 0 0 1 7.325,7.178 39.769,39.769 0 0 1 10.415,4.775 34.861,34.861 0 0 1 11.451,4.077 26.186,26.186 0 0 1 15.723,1.831 Q 17.92,0.928 20.337,0.464 22.754,0 25.489,0 a 38.728,38.728 0 0 1 6.585,0.537 30.367,30.367 0 0 1 5.28,1.392 28.964,28.964 0 0 1 5.559,2.703 24.104,24.104 0 0 1 3.377,2.57 23.265,23.265 0 0 1 5.639,7.789 23.033,23.033 0 0 1 1.978,9.472 26.629,26.629 0 0 1 -0.581,5.653 22.921,22.921 0 0 1 -0.835,2.917 27.214,27.214 0 0 1 -3.858,7.177 29.842,29.842 0 0 1 -5.761,5.786 q -3.321,2.539 -7.178,4.395 a 30.467,30.467 0 0 1 4.614,3.101 q 2.124,1.733 3.687,3.906 1.562,2.173 2.441,4.761 a 16.686,16.686 0 0 1 0.824,4.129 19.786,19.786 0 0 1 0.055,1.486 15.222,15.222 0 0 1 -1.318,6.274 q -1.319,2.954 -3.565,5.225 -2.246,2.27 -5.2,3.589 A 15.107,15.107 0 0 1 31.006,84.18 11.503,11.503 0 0 1 28.55,83.903 14.579,14.579 0 0 1 27.002,83.472 q -2.099,-0.708 -4.003,-1.88 A 21.829,21.829 0 0 1 19.483,78.907 Q 17.872,77.393 16.895,75.782 Z M 15.43,53.858 a 32.949,32.949 0 0 0 7.544,-0.977 33.5,33.5 0 0 0 7.105,-2.637 q -3.272,-1.611 -7.007,-2.417 -3.736,-0.805 -7.398,-1 a 126.899,126.899 0 0 0 -0.146,3.515 z M 5.616,49.756 q 0,0.733 0.415,1.294 0.415,0.562 1.074,1.001 a 6.747,6.747 0 0 0 0.9,0.502 8.361,8.361 0 0 0 0.614,0.255 12.517,12.517 0 0 0 1.782,0.513 Q 10.352,51.66 10.328,50.098 a 200.022,200.022 0 0 1 -0.025,-3.125 11.732,11.732 0 0 0 -1.709,0.317 9.303,9.303 0 0 0 -0.88,0.278 7.312,7.312 0 0 0 -0.609,0.259 3.545,3.545 0 0 0 -0.648,0.399 2.904,2.904 0 0 0 -0.426,0.407 1.684,1.684 0 0 0 -0.415,1.123 z"
       vector-effect="non-scaling-stroke"
       id="path2"
       style="fill:#d40000;fill-opacity:1;fill-rule:evenodd;stroke:#d20419;stroke-width:0.260599mm;stroke-opacity:1" />
  </g>
</svg>
